<svg xmlns="http://www.w3.org/2000/svg" viewBox="0 0 165.58 116.74"><defs><style>.cls-1{fill:#fff;}</style></defs><g id="Layer_2" data-name="Layer 2"><g id="Camada_1" data-name="Camada 1"><path class="cls-1" d="M128.21,74.14l-3,1.65a.87.87,0,0,0-.43.75v4.2a.85.85,0,0,0,.84.85h5.9a.85.85,0,0,0,.84-.85v-4.2a.87.87,0,0,0-.43-.75L129,74.14A.85.85,0,0,0,128.21,74.14Z"/><path class="cls-1" d="M53.61,85.85c0,5.34-4.66,8.91-11.89,8.91H28.84a.42.42,0,0,1-.42-.42V62.17a.42.42,0,0,1,.42-.42H41.13c7.33,0,11.62,4.07,11.62,9.13a7.64,7.64,0,0,1-4.47,6.9.12.12,0,0,0,0,.22C51.33,79.42,53.61,82,53.61,85.85ZM34.75,67.22V75.4a.27.27,0,0,0,.27.27h5.7c3.3,0,5.7-2,5.7-4.43S44.16,67,40.9,67H35A.27.27,0,0,0,34.75,67.22ZM47.19,85.08c0-3-2.9-4.52-6.29-4.52H35a.27.27,0,0,0-.27.27v8.46a.27.27,0,0,0,.27.27h6.24C45.11,89.56,47.19,87.62,47.19,85.08Z"/><path class="cls-1" d="M89,88.88,92,92.23a.68.68,0,0,1-.06,1l-2.84,2.4a.67.67,0,0,1-.93,0L85.1,92.21a18.78,18.78,0,0,1-10,2.68c-10.25,0-17.81-7.24-17.81-17.21,0-9.75,7.56-17,17.81-17S93,67.93,93,77.68A16.85,16.85,0,0,1,89,88.88ZM81,87.6l-4-4.34a.68.68,0,0,1,.06-1l2.87-2.4a.69.69,0,0,1,.94.06l3.75,4.12a11.92,11.92,0,0,0,1.68-5.84A11.31,11.31,0,0,0,75.12,66.52c-6.51,0-11.07,4.6-11.07,11.16s4.56,11.43,11.07,11.43A11.62,11.62,0,0,0,81,87.6Z"/><path class="cls-1" d="M121.16,73.65c0,7.07-6.16,11.95-14.15,11.95h-3.78v8.86a.44.44,0,0,1-.45.44H97.1a.44.44,0,0,1-.44-.44V62.05a.45.45,0,0,1,.44-.45H107C115,61.6,121.16,66.39,121.16,73.65Zm-6.71,0c0-3.84-3.15-6.66-7.3-6.66h-3.48a.44.44,0,0,0-.44.44V79.77a.45.45,0,0,0,.44.45h3.48C111.35,80.22,114.45,77.3,114.45,73.65Z"/><path class="cls-1" d="M165.33,62.31V94.19a.49.49,0,0,1-.49.5h-5.5a.49.49,0,0,1-.49-.5V81.81a.4.4,0,0,0-.4-.4H142.86a.4.4,0,0,0-.4.4V94.19a.5.5,0,0,1-.5.5h-5.49a.49.49,0,0,1-.49-.5V62.31a.49.49,0,0,1,.49-.49H142a.49.49,0,0,1,.5.49V75.1a.4.4,0,0,0,.4.41h15.59a.4.4,0,0,0,.4-.41V62.31a.49.49,0,0,1,.49-.49h5.5A.49.49,0,0,1,165.33,62.31Z"/><path class="cls-1" d="M24.65,73.65c0,7.07-6.16,11.95-14.14,11.95H6.72v8.86a.44.44,0,0,1-.44.44H.6a.44.44,0,0,1-.45-.44V62.05A.45.45,0,0,1,.6,61.6h9.91C18.45,61.6,24.65,66.39,24.65,73.65Zm-6.71,0c0-3.84-3.14-6.66-7.3-6.66H7.17a.44.44,0,0,0-.45.44V79.77a.45.45,0,0,0,.45.45h3.47C14.84,80.22,17.94,77.3,17.94,73.65Z"/><path class="cls-1" d="M4.05,103.57a2.28,2.28,0,0,1-2.5,2.14H.81v1.75H0v-6H1.55A2.24,2.24,0,0,1,4.05,103.57Zm-.82,0a1.48,1.48,0,0,0-1.67-1.4H.81V105h.75A1.53,1.53,0,0,0,3.23,103.57Z"/><path class="cls-1" d="M8,107.46l-2.09-2.12v2.12h-.8v-6H6.58c1.41,0,2.44.8,2.44,2s-.88,1.79-2.12,1.89l2.2,2.15Zm-2.09-5.29v2.49h.65c1,0,1.63-.48,1.63-1.23s-.64-1.26-1.64-1.26Z"/><path class="cls-1" d="M13,101.38a3.08,3.08,0,1,1,0,6.16,3.08,3.08,0,1,1,0-6.16Zm0,5.46a2.38,2.38,0,1,0-2.34-2.4A2.3,2.3,0,0,0,13,106.84Z"/><path class="cls-1" d="M22.89,105a2.56,2.56,0,0,1-2.77,2.59,3.08,3.08,0,1,1,0-6.16,2.66,2.66,0,0,1,2.75,2.36h-.76a1.89,1.89,0,0,0-2-1.65,2.38,2.38,0,0,0,0,4.75,1.85,1.85,0,0,0,2-1.47H20.25v-.7h2.64Z"/><path class="cls-1" d="M27,107.46l-2.09-2.12v2.12h-.81v-6h1.46c1.4,0,2.44.8,2.44,2s-.88,1.79-2.12,1.89l2.19,2.15Zm-2.09-5.29v2.49h.65c1,0,1.63-.48,1.63-1.23s-.65-1.26-1.64-1.26Z"/><path class="cls-1" d="M33.36,107.46l-.53-1.39v0h-3l-.53,1.37h-.83l2.39-6h.95l2.39,6Zm-.81-2.14-1.2-3.14-1.2,3.14Z"/><path class="cls-1" d="M40.84,101.46v6h-.75v-4.69l-1.89,2.85h-.44l-1.9-2.82v4.66h-.75v-6h.7L38,104.73l2.18-3.27Z"/><path class="cls-1" d="M46.59,107.46l-.53-1.39v0h-3l-.53,1.37h-.83l2.39-6h1l2.39,6Zm-.81-2.14-1.2-3.14-1.2,3.14Z"/><path class="cls-1" d="M55.68,105.87c0,.91-.75,1.59-2.06,1.59H51.39v-6h2c1.3,0,2.07.62,2.07,1.59a1.43,1.43,0,0,1-.93,1.31A1.53,1.53,0,0,1,55.68,105.87Zm-3.5-3.72v1.9h1.24c.75,0,1.3-.41,1.3-1s-.51-.94-1.3-.94Zm2.7,3.63c0-.84-.83-1-1.44-1H52.18v2h1.39C54.44,106.77,54.88,106.33,54.88,105.78Z"/><path class="cls-1" d="M59.83,107.46l-2.09-2.12v2.12h-.81v-6h1.46c1.4,0,2.44.8,2.44,2s-.88,1.79-2.12,1.89l2.19,2.15Zm-2.09-5.29v2.49h.65c1,0,1.62-.48,1.62-1.23s-.64-1.26-1.63-1.26Z"/><path class="cls-1" d="M66.16,107.46l-.53-1.39v0h-3l-.53,1.37h-.83l2.39-6h.95l2.39,6Zm-.81-2.14-1.2-3.14-1.21,3.14Z"/><path class="cls-1" d="M68.08,105.73a1.54,1.54,0,0,0,1.56,1.1c.74,0,1.28-.4,1.28-.92,0-1.47-3.32-.72-3.32-3,0-.94.82-1.58,2-1.58a2.05,2.05,0,0,1,2.11,1.73H70.9a1.33,1.33,0,0,0-1.32-1c-.7,0-1.17.35-1.17.87,0,1.52,3.32.81,3.32,2.93,0,1-1,1.65-2.09,1.65a2.32,2.32,0,0,1-2.38-1.81Z"/><path class="cls-1" d="M73.77,107.46H73v-6h.8Z"/><path class="cls-1" d="M79.21,106.71v.75h-3.8v-6h.8v5.25Z"/><path class="cls-1" d="M83.54,106.75v.71H80.15v-6H83.5v.7H81v2h2.39v.71H81v1.92Z"/><path class="cls-1" d="M85.61,107.46h-.8v-6h.8Z"/><path class="cls-1" d="M90.14,107.46l-2.09-2.12v2.12h-.8v-6H88.7c1.41,0,2.45.8,2.45,2s-.88,1.79-2.12,1.89l2.19,2.15Zm-2.09-5.29v2.49h.65c1,0,1.63-.48,1.63-1.23s-.64-1.26-1.63-1.26Z"/><path class="cls-1" d="M95.11,101.38A3.08,3.08,0,1,1,92,104.44,3,3,0,0,1,95.11,101.38Zm0,5.46a2.38,2.38,0,0,0,0-4.76,2.38,2.38,0,0,0,0,4.76Z"/><path class="cls-1" d="M107.89,104.46a3,3,0,0,1-3.1,3h-2.23v-6h2.23A3,3,0,0,1,107.89,104.46Zm-.83,0a2.18,2.18,0,0,0-2.27-2.31h-1.42v4.61h1.42A2.18,2.18,0,0,0,107.06,104.46Z"/><path class="cls-1" d="M121.94,106.57l.64.72-.52.44-.64-.72a3.36,3.36,0,0,1-1.84.53,3.06,3.06,0,1,1,2.36-1Zm-1-.12-1-1.16.53-.46,1,1.15a2.38,2.38,0,0,0,.51-1.54,2.35,2.35,0,1,0-2.35,2.4A2.37,2.37,0,0,0,120.91,106.45Z"/><path class="cls-1" d="M123.89,101.46h.82V105a1.7,1.7,0,1,0,3.39,0v-3.53h.82v3.48a2.52,2.52,0,1,1-5,0Z"/><path class="cls-1" d="M134.42,107.46l-.52-1.39v0h-3l-.52,1.37h-.84l2.39-6h.95l2.39,6Zm-.81-2.14-1.19-3.14-1.21,3.14Z"/><path class="cls-1" d="M140,106.71v.75h-3.8v-6H137v5.25Z"/><path class="cls-1" d="M141.71,107.46h-.8v-6h.8Z"/><path class="cls-1" d="M148.67,104.46a2.94,2.94,0,0,1-3.09,3h-2.23v-6h2.23A3,3,0,0,1,148.67,104.46Zm-.82,0a2.19,2.19,0,0,0-2.27-2.31h-1.42v4.61h1.42A2.18,2.18,0,0,0,147.85,104.46Z"/><path class="cls-1" d="M153.89,107.46l-.53-1.39v0h-3l-.53,1.37H149l2.39-6h1l2.39,6Zm-.81-2.14-1.2-3.14-1.21,3.14Z"/><path class="cls-1" d="M161,104.46a2.94,2.94,0,0,1-3.1,3h-2.22v-6h2.22A3,3,0,0,1,161,104.46Zm-.83,0a2.18,2.18,0,0,0-2.27-2.31h-1.42v4.61h1.42A2.18,2.18,0,0,0,160.13,104.46Z"/><path class="cls-1" d="M165.58,106.75v.71h-3.4v-6h3.36v.7H163v2h2.4v.71H163v1.92Z"/><path class="cls-1" d="M22.33,116v.71h-3.4v-6h3.36v.69H19.73v2h2.39V114H19.73V116Z"/><path class="cls-1" d="M30.7,112.77a2.29,2.29,0,0,1-2.51,2.14h-.74v1.75h-.81v-6h1.55A2.24,2.24,0,0,1,30.7,112.77Zm-.82,0a1.49,1.49,0,0,0-1.67-1.41h-.76v2.84h.76A1.53,1.53,0,0,0,29.88,112.77Z"/><path class="cls-1" d="M34.66,116.66l-2.09-2.12v2.12h-.8v-6h1.45c1.41,0,2.45.79,2.45,2s-.88,1.78-2.13,1.89l2.2,2.15Zm-2.09-5.3v2.49h.65c1,0,1.63-.47,1.63-1.22s-.64-1.27-1.63-1.27Z"/><path class="cls-1" d="M39.63,110.57a3.09,3.09,0,1,1-3.16,3.07A3.05,3.05,0,0,1,39.63,110.57Zm0,5.46a2.38,2.38,0,0,0,0-4.75,2.38,2.38,0,0,0,0,4.75Z"/><path class="cls-1" d="M49.35,113.66a2.94,2.94,0,0,1-3.09,3H44v-6h2.23A3,3,0,0,1,49.35,113.66Zm-.82,0a2.18,2.18,0,0,0-2.27-2.31H44.83V116h1.43A2.18,2.18,0,0,0,48.53,113.66Z"/><path class="cls-1" d="M50.49,110.66h.82v3.52a1.7,1.7,0,1,0,3.39,0v-3.52h.82v3.47a2.52,2.52,0,1,1-5,0Z"/><path class="cls-1" d="M61,111.41H59.07v5.25h-.83v-5.25H56.37v-.75H61Z"/><path class="cls-1" d="M62.73,116.66h-.81v-6h.81Z"/><path class="cls-1" d="M69.24,110.66l-2.34,6H66l-2.43-6h.91l2,5.19,1.92-5.19Z"/><path class="cls-1" d="M71,116.66h-.81v-6H71Z"/><path class="cls-1" d="M77.91,113.66a2.94,2.94,0,0,1-3.09,3H72.59v-6h2.23A3,3,0,0,1,77.91,113.66Zm-.82,0a2.18,2.18,0,0,0-2.27-2.31H73.4V116h1.42A2.18,2.18,0,0,0,77.09,113.66Z"/><path class="cls-1" d="M83.13,116.66l-.53-1.39v0h-3l-.53,1.37h-.83l2.39-6h.95l2.39,6Zm-.81-2.14-1.2-3.14-1.21,3.14Z"/><path class="cls-1" d="M90.2,113.66a2.94,2.94,0,0,1-3.1,3H84.88v-6H87.1A3,3,0,0,1,90.2,113.66Zm-.82,0a2.18,2.18,0,0,0-2.28-2.31H85.68V116H87.1A2.19,2.19,0,0,0,89.38,113.66Z"/><path class="cls-1" d="M94.82,116v.71h-3.4v-6h3.36v.69H92.22v2h2.4V114h-2.4V116Z"/><path class="cls-1" d="M104.46,113.66a2.94,2.94,0,0,1-3.09,3H99.14v-6h2.23A3,3,0,0,1,104.46,113.66Zm-.82,0a2.18,2.18,0,0,0-2.27-2.31H100V116h1.42A2.18,2.18,0,0,0,103.64,113.66Z"/><path class="cls-1" d="M108.44,110.57a3.09,3.09,0,1,1-3.16,3.07A3.05,3.05,0,0,1,108.44,110.57Zm0,5.46a2.38,2.38,0,0,0,0-4.75,2.38,2.38,0,0,0,0,4.75Z"/><path class="cls-1" d="M121.11,110.66v6h-.81v-2.61h-3.6v2.61h-.81v-6h.81v2.63h3.6v-2.63Z"/><path class="cls-1" d="M126.86,116.66l-.53-1.39v0h-3l-.53,1.37H122l2.39-6h1l2.39,6Zm-.81-2.14-1.2-3.14-1.21,3.14Z"/><path class="cls-1" d="M132.89,115.06c0,.92-.75,1.6-2.06,1.6h-2.22v-6h2c1.3,0,2.07.62,2.07,1.58a1.42,1.42,0,0,1-.93,1.32A1.52,1.52,0,0,1,132.89,115.06Zm-3.49-3.71v1.9h1.24c.74,0,1.29-.41,1.29-1s-.5-.93-1.3-.93Zm2.69,3.63c0-.85-.83-1-1.44-1H129.4v2h1.39C131.66,116,132.09,115.53,132.09,115Z"/><path class="cls-1" d="M135,116.66h-.81v-6H135Z"/><path class="cls-1" d="M140.51,111.41H138.6v5.25h-.84v-5.25H135.9v-.75h4.61Z"/><path class="cls-1" d="M145,116.66l-.53-1.39v0h-3l-.53,1.37h-.83l2.39-6h1l2.39,6Zm-.81-2.14-1.2-3.14-1.2,3.14Z"/><path class="cls-1" d="M150,111.41h-1.91v5.25h-.84v-5.25h-1.86v-.75H150Z"/><path class="cls-1" d="M112.82,107.46l-.53-1.39v0h-3l-.53,1.37H108l2.38-6h1l2.38,6Zm-.82-2.14-1.19-3.14-1.21,3.14Z"/><path class="cls-1" d="M60,.82V48.7a1.17,1.17,0,0,0,1.16,1.19H71.41a1.17,1.17,0,0,0,1.16-1.19V25.33a2.61,2.61,0,0,1,1.31-2.28l16.75-9.49a1.66,1.66,0,0,0,.84-1.45V.82a.81.81,0,0,0-.8-.82H60.77A.82.82,0,0,0,60,.82Z"/><path class="cls-1" d="M91.44,16.37v32.4a1.11,1.11,0,0,0,1.1,1.12h16.31a.89.89,0,0,0,.88-.91V25.14a1.17,1.17,0,0,0-.59-1L93.38,15.19A1.31,1.31,0,0,0,91.44,16.37Z"/><circle class="cls-1" cx="103.21" cy="6.6" r="6.56"/></g></g></svg>