<svg width="130" height="45" viewBox="0 0 130 45" fill="none" xmlns="http://www.w3.org/2000/svg">
<path d="M42.0661 20.4121C42.0661 24.5991 38.4325 27.3905 32.8091 27.3905H22.7734C22.6004 27.3905 22.4274 27.2161 22.4274 27.0416V1.74469C22.4274 1.57023 22.6004 1.39576 22.7734 1.39576H32.3765C38.0864 1.39576 41.4605 4.6233 41.4605 8.54869C41.4605 11.0784 39.9897 12.9102 37.9999 13.957C37.9134 13.957 37.9134 14.1315 37.9999 14.1315C40.3358 15.3527 42.0661 17.4462 42.0661 20.4121ZM27.3587 5.7573V12.2124C27.3587 12.2996 27.4452 12.3868 27.5317 12.3868H31.9439C34.5393 12.3868 36.3561 10.8167 36.3561 8.89761C36.3561 6.8913 34.6259 5.49561 32.0304 5.49561H27.4452C27.4452 5.58284 27.3587 5.67007 27.3587 5.7573ZM37.0483 19.8887C37.0483 17.5335 34.7989 16.3122 32.1169 16.3122H27.5317C27.4452 16.3122 27.3587 16.3995 27.3587 16.4867V23.1162C27.3587 23.2035 27.4452 23.2907 27.5317 23.2907H32.3765C35.491 23.3779 37.0483 21.8078 37.0483 19.8887ZM69.6641 22.8545L72.0864 25.4715C72.2595 25.7332 72.2595 26.0821 71.9999 26.2565L69.7506 28.1756C69.5775 28.3501 69.2315 28.3501 69.0585 28.0884L66.6361 25.4715C64.4732 26.8672 61.7913 27.565 58.8498 27.565C50.8905 27.565 44.921 21.895 44.921 14.0442C44.921 6.36792 50.804 0.697918 58.8498 0.697918C66.8956 0.697918 72.7786 6.36792 72.7786 14.0442C72.8651 17.5335 71.6539 20.4993 69.6641 22.8545ZM63.435 21.8078L60.3205 18.4058C60.1475 18.1441 60.1475 17.7952 60.407 17.6207L62.6564 15.7016C62.916 15.5272 63.1755 15.5272 63.3485 15.7888L66.29 19.0164C67.0686 17.7079 67.5012 16.1378 67.5877 14.3931C67.7607 9.50823 63.7811 5.23392 58.9363 5.23392C53.832 5.23392 50.2849 8.89761 50.2849 14.0442C50.2849 19.2781 53.832 23.029 58.9363 23.029C60.5801 23.029 62.1373 22.5928 63.435 21.8078ZM94.8397 10.8167C94.8397 16.3995 89.9949 20.2376 83.7658 20.2376H80.8244V27.2161C80.8244 27.3905 80.6514 27.565 80.4783 27.565H76.0661C75.8931 27.565 75.72 27.3905 75.72 27.2161V1.74469C75.72 1.57023 75.8931 1.39576 76.0661 1.39576H83.7658C89.9949 1.39576 94.8397 5.14669 94.8397 10.8167ZM89.5623 10.8167C89.5623 7.76361 87.1399 5.58284 83.8524 5.58284H81.1704C80.9974 5.58284 80.8244 5.7573 80.8244 5.93176V15.6144C80.8244 15.7888 80.9974 15.9633 81.1704 15.9633H83.8524C87.1399 16.0505 89.5623 13.6953 89.5623 10.8167ZM129.272 1.91915V27.0416C129.272 27.2161 129.099 27.3905 128.926 27.3905H124.601C124.427 27.3905 124.254 27.2161 124.254 27.0416V17.2718C124.254 17.0973 124.081 16.9228 123.908 16.9228H111.71C111.537 16.9228 111.364 17.0973 111.364 17.2718V27.0416C111.364 27.2161 111.191 27.3905 111.018 27.3905H106.692C106.519 27.3905 106.346 27.2161 106.346 27.0416V1.91915C106.346 1.74469 106.519 1.57023 106.692 1.57023H111.018C111.191 1.57023 111.364 1.74469 111.364 1.91915V11.9507C111.364 12.1251 111.537 12.2996 111.71 12.2996H123.908C124.081 12.2996 124.254 12.1251 124.254 11.9507V1.91915C124.254 1.74469 124.427 1.57023 124.601 1.57023H128.926C129.099 1.57023 129.272 1.74469 129.272 1.91915ZM19.4859 10.8167C19.4859 16.3995 14.6411 20.2376 8.41209 20.2376H5.47061V27.2161C5.47061 27.3905 5.29758 27.565 5.12455 27.565H0.712337C0.539309 27.565 0.36628 27.3905 0.36628 27.2161V1.74469C0.36628 1.57023 0.539309 1.39576 0.712337 1.39576H8.41209C14.6411 1.39576 19.4859 5.14669 19.4859 10.8167ZM14.2085 10.8167C14.2085 7.76361 11.7861 5.58284 8.4986 5.58284H5.81667C5.64364 5.58284 5.47061 5.7573 5.47061 5.93176V15.6144C5.47061 15.7888 5.64364 15.9633 5.81667 15.9633H8.4986C11.7861 16.0505 14.2085 13.6953 14.2085 10.8167Z" fill="white"/>
<path d="M100.377 11.2528L98.0407 12.5613C97.8676 12.6485 97.6946 12.9102 97.6946 13.1719V16.4867C97.6946 16.8356 97.9542 17.1845 98.3868 17.1845H102.972C103.318 17.1845 103.664 16.9228 103.664 16.4867V13.1719C103.664 12.9102 103.578 12.7358 103.318 12.5613L100.982 11.2528C100.809 11.1656 100.55 11.1656 100.377 11.2528Z" fill="#F6C300"/>
<path d="M3.30775 34.369C3.30775 35.3285 2.44261 36.0263 1.31792 36.0263H0.712327V37.422H0.106728V32.7116H1.31792C2.44261 32.7116 3.30775 33.4094 3.30775 34.369ZM2.61563 34.369C2.61563 33.6711 2.01004 33.235 1.31792 33.235H0.712327V35.503H1.31792C2.09655 35.503 2.61563 35.0668 2.61563 34.369ZM6.33574 37.422L4.69197 35.7647V37.422H4.08638V32.7116H5.21106C6.33574 32.7116 7.11437 33.3222 7.11437 34.2817C7.11437 35.154 6.42226 35.6774 5.4706 35.7647L7.20088 37.422H6.33574ZM4.77849 33.3222V35.3285H5.29757C6.0762 35.3285 6.59528 34.9796 6.59528 34.369C6.59528 33.7584 6.0762 33.4094 5.29757 33.4094H4.77849V33.3222ZM10.2289 32.7116C11.6131 32.7116 12.7378 33.6711 12.7378 35.154C12.7378 36.637 11.6131 37.5965 10.2289 37.5965C8.84465 37.5965 7.71997 36.637 7.71997 35.154C7.80648 33.6711 8.93116 32.7116 10.2289 32.7116ZM10.2289 36.9859C11.267 36.9859 12.0457 36.2008 12.0457 35.0668C12.0457 33.9328 11.267 33.235 10.2289 33.235C9.19071 33.235 8.41208 34.02 8.41208 35.0668C8.41208 36.2008 9.27722 36.9859 10.2289 36.9859ZM18.0151 35.503C18.0151 36.7242 17.15 37.5093 15.8523 37.5093C14.5546 37.5093 13.4299 36.4625 13.4299 35.0668C13.4299 33.6711 14.5546 32.6244 15.8523 32.6244C16.977 32.6244 17.9286 33.4094 18.0151 34.4562H17.4095C17.323 33.6711 16.7174 33.1477 15.8523 33.1477C14.9006 33.1477 14.0355 33.9328 14.0355 34.9796C14.0355 36.1136 14.9006 36.8114 15.8523 36.8114C16.7174 36.8114 17.323 36.3753 17.4095 35.6774H15.9388V35.154H18.0151V35.503ZM21.2162 37.422L19.5724 35.7647V37.422H18.9668V32.7116H20.0915C21.2162 32.7116 21.9948 33.3222 21.9948 34.2817C21.9948 35.154 21.3027 35.6774 20.351 35.7647L22.0813 37.422H21.2162ZM19.5724 33.3222V35.3285H20.0915C20.8701 35.3285 21.3892 34.9796 21.3892 34.369C21.3892 33.7584 20.8701 33.4094 20.0915 33.4094H19.5724V33.3222ZM26.1475 37.422L25.7149 36.288H23.379L22.9464 37.3348H22.2543L24.1576 32.6244H24.9363L26.8396 37.3348H26.1475V37.422ZM25.5419 35.7647L24.5902 33.3222L23.6386 35.7647H25.5419ZM32.0304 32.7116V37.422H31.4248V33.7584L29.9541 36.0263H29.608L28.1373 33.8456V37.5093H27.5317V32.7988H28.0508L29.7811 35.4157L31.5113 32.7988H32.0304V32.7116ZM36.5292 37.422L36.0966 36.288H33.7607L33.3281 37.3348H32.636L34.5393 32.6244H35.318L37.2213 37.3348H36.5292V37.422ZM35.837 35.7647L34.8854 33.3222L33.9337 35.7647H35.837ZM43.6233 36.2008C43.6233 36.8987 43.0177 37.422 41.9795 37.422H40.2493V32.7116H41.8065C42.8447 32.7116 43.4503 33.235 43.4503 33.9328C43.4503 34.369 43.1907 34.8051 42.7582 34.9796C43.1907 35.2413 43.6233 35.5902 43.6233 36.2008ZM40.8549 33.3222V34.8051H41.8065C42.4121 34.8051 42.8447 34.4562 42.8447 34.02C42.8447 33.4967 42.4121 33.3222 41.8065 33.3222H40.8549ZM42.9312 36.1136C42.9312 35.4157 42.2391 35.3285 41.8065 35.3285H40.8549V36.8987H41.9795C42.5851 36.8987 42.9312 36.5497 42.9312 36.1136ZM46.8243 37.422L45.1806 35.7647V37.422H44.575V32.7116H45.6996C46.8243 32.7116 47.603 33.3222 47.603 34.2817C47.603 35.154 46.9108 35.6774 45.9592 35.7647L47.6895 37.422H46.8243ZM45.1806 33.3222V35.3285H45.6996C46.4783 35.3285 46.9974 34.9796 46.9974 34.369C46.9974 33.7584 46.4783 33.4094 45.6996 33.4094H45.1806V33.3222ZM51.7556 37.422L51.3231 36.288H48.9872L48.5546 37.3348H47.8625L49.7658 32.6244H50.5444L52.4477 37.3348H51.7556V37.422ZM51.15 35.7647L50.1984 33.3222L49.2467 35.7647H51.15ZM53.2264 36.1136C53.3994 36.7242 53.9185 36.9859 54.4376 36.9859C55.0432 36.9859 55.4757 36.637 55.4757 36.288C55.4757 35.154 52.8803 35.7647 52.8803 33.9328C52.8803 33.235 53.4859 32.7116 54.4376 32.7116C55.3892 32.7116 55.9083 33.3222 56.0813 34.1073H55.4757C55.3027 33.5839 54.9567 33.3222 54.4376 33.3222C53.9185 33.3222 53.4859 33.5839 53.4859 34.02C53.4859 35.2413 56.0813 34.6307 56.0813 36.3753C56.0813 37.1604 55.3027 37.6837 54.4376 37.6837C53.4859 37.6837 52.7938 37.1603 52.6208 36.288H53.2264V36.1136ZM57.7251 37.422H57.1195V32.7116H57.7251V37.422ZM61.9643 36.8987V37.5093H59.0228V32.7988H59.6284V36.8987H61.9643ZM65.3383 36.8987V37.422H62.6564V32.7116H65.2518V33.235H63.262V34.8051H65.1653V35.4157H63.262V36.8987H65.3383ZM66.9821 37.422H66.29V32.7116H66.8956V37.422H66.9821ZM70.5292 37.422L68.8854 35.7647V37.422H68.2798V32.7116H69.4045C70.5292 32.7116 71.3078 33.3222 71.3078 34.2817C71.3078 35.154 70.6157 35.6774 69.6641 35.7647L71.3943 37.422H70.5292ZM68.8854 33.3222V35.3285H69.4045C70.1831 35.3285 70.7022 34.9796 70.7022 34.369C70.7022 33.7584 70.1831 33.4094 69.4045 33.4094H68.8854V33.3222ZM74.3358 32.7116C75.72 32.7116 76.8447 33.6711 76.8447 35.154C76.8447 36.637 75.72 37.5965 74.3358 37.5965C72.9516 37.5965 71.8269 36.637 71.8269 35.154C71.9134 33.6711 73.0381 32.7116 74.3358 32.7116ZM74.3358 36.9859C75.374 36.9859 76.1526 36.2008 76.1526 35.0668C76.1526 33.9328 75.374 33.235 74.3358 33.235C73.2976 33.235 72.519 34.02 72.519 35.0668C72.519 36.2008 73.3842 36.9859 74.3358 36.9859ZM84.3715 35.0668C84.3715 36.4625 83.3333 37.422 81.9491 37.422H80.2188V32.7116H81.9491C83.3333 32.7116 84.3715 33.6711 84.3715 35.0668ZM83.6793 35.0668C83.6793 33.8456 82.8142 33.235 81.9491 33.235H80.8244V36.8987H81.9491C82.9007 36.8987 83.6793 36.288 83.6793 35.0668ZM95.3587 36.7242L95.8778 37.3348L95.4452 37.6837L94.9262 37.1603C94.4936 37.422 94.061 37.5965 93.4554 37.5965C92.0712 37.5965 90.9465 36.637 90.9465 35.154C90.9465 33.7583 92.0712 32.7116 93.4554 32.7116C94.8397 32.7116 95.9643 33.6711 95.9643 35.154C95.9643 35.7647 95.7048 36.3753 95.3587 36.7242ZM94.4936 36.637L93.715 35.7647L94.1475 35.4157L94.9262 36.288C95.1857 35.9391 95.3587 35.5902 95.3587 35.0668C95.3587 33.9328 94.5801 33.235 93.5419 33.235C92.5038 33.235 91.7251 34.02 91.7251 35.0668C91.7251 36.2008 92.5038 36.9859 93.5419 36.9859C93.888 36.9859 94.2341 36.8987 94.4936 36.637ZM96.8295 32.7116H97.4351V35.503C97.4351 36.3753 97.9542 36.8987 98.7328 36.8987C99.5114 36.8987 100.03 36.3753 100.03 35.503V32.7116H100.636V35.4157C100.636 36.637 99.8575 37.5093 98.6463 37.5093C97.5216 37.5093 96.6564 36.7242 96.6564 35.4157V32.7116H96.8295ZM105.048 37.422L104.616 36.288H102.28L101.847 37.3348H101.155L103.058 32.6244H103.837L105.74 37.3348H105.048V37.422ZM104.443 35.7647L103.491 33.3222L102.539 35.7647H104.443ZM109.374 36.8987V37.5093H106.433V32.7988H107.038V36.8987H109.374ZM110.758 37.422H110.153V32.7116H110.758V37.422ZM116.209 35.0668C116.209 36.4625 115.17 37.422 113.786 37.422H112.056V32.7116H113.786C115.17 32.7116 116.209 33.6711 116.209 35.0668ZM115.517 35.0668C115.517 33.8456 114.651 33.235 113.786 33.235H112.662V36.8987H113.786C114.738 36.8987 115.517 36.288 115.517 35.0668ZM120.275 37.422L119.842 36.288H117.506L117.074 37.3348H116.468L118.371 32.6244H119.15L121.053 37.3348H120.275V37.422ZM119.583 35.7647L118.631 33.3222L117.679 35.7647H119.583ZM125.812 35.0668C125.812 36.4625 124.774 37.422 123.389 37.422H121.659V32.7116H123.389C124.774 32.7116 125.812 33.6711 125.812 35.0668ZM125.12 35.0668C125.12 33.8456 124.254 33.235 123.389 33.235H122.265V36.8987H123.389C124.254 36.8987 125.12 36.288 125.12 35.0668ZM129.359 36.8987V37.422H126.677V32.7116H129.272V33.235H127.282V34.8051H129.186V35.4157H127.282V36.8987H129.359ZM2.78867 44.1388V44.6622H0.106728V39.9517H2.70215V40.4751H0.712327V42.0453H2.61563V42.5687H0.712327V44.1388H2.78867ZM9.27722 41.6091C9.27722 42.5687 8.41208 43.2665 7.2874 43.2665H6.6818V44.6622H6.0762V39.9517H7.2874C8.49859 39.9517 9.27722 40.6496 9.27722 41.6091ZM8.67162 41.6091C8.67162 40.9113 8.06602 40.4751 7.37391 40.4751H6.76831V42.7431H7.37391C8.06602 42.7431 8.67162 42.307 8.67162 41.6091ZM12.3917 44.6622L10.748 43.0048V44.6622H10.1424V39.9517H11.267C12.3917 39.9517 13.1704 40.5623 13.1704 41.5219C13.1704 42.3942 12.4782 42.9176 11.5266 43.0048L13.2569 44.6622H12.3917ZM10.748 40.5624V42.5687H11.267C12.0457 42.5687 12.5648 42.2197 12.5648 41.6091C12.5648 40.9985 12.0457 40.6496 11.267 40.6496H10.748V40.5624ZM16.2849 39.9517C17.6691 39.9517 18.7938 40.9113 18.7938 42.3942C18.7938 43.8771 17.6691 44.8367 16.2849 44.8367C14.9006 44.8367 13.776 43.8771 13.776 42.3942C13.776 40.9113 14.9006 39.9517 16.2849 39.9517ZM16.2849 44.226C17.323 44.226 18.1017 43.441 18.1017 42.307C18.1017 41.173 17.323 40.4751 16.2849 40.4751C15.2467 40.4751 14.4681 41.2602 14.4681 42.307C14.4681 43.441 15.2467 44.226 16.2849 44.226ZM23.8981 42.307C23.8981 43.7027 22.8599 44.6622 21.4757 44.6622H19.7454V39.9517H21.4757C22.8599 39.9517 23.8981 40.9113 23.8981 42.307ZM23.206 42.307C23.206 41.0857 22.3408 40.4751 21.4757 40.4751H20.351V44.1388H21.4757C22.3408 44.1388 23.206 43.5282 23.206 42.307ZM24.7632 39.9517H25.3688V42.7431C25.3688 43.6154 25.8879 44.1388 26.6666 44.1388C27.4452 44.1388 27.9643 43.6154 27.9643 42.7431V39.9517H28.5699V42.6559C28.5699 43.8771 27.7912 44.7494 26.58 44.7494C25.4554 44.7494 24.5902 43.9644 24.5902 42.6559V39.9517H24.7632ZM32.9821 40.5624H31.5113V44.6622H30.8192V40.5624H29.3485V39.9517H32.9821V40.5624ZM34.2798 44.6622H33.6742V39.9517H34.2798V44.6622ZM39.3841 39.9517L37.5673 44.6622H36.8752L34.9719 39.9517H35.664L37.2213 44.0516L38.692 39.9517H39.3841ZM40.7683 44.6622H40.1627V39.9517H40.7683V44.6622ZM46.1322 42.307C46.1322 43.7027 45.094 44.6622 43.7098 44.6622H41.9795V39.9517H43.7098C45.094 39.9517 46.1322 40.9113 46.1322 42.307ZM45.5266 42.307C45.5266 41.0857 44.6615 40.4751 43.7963 40.4751H42.6717V44.1388H43.7963C44.6615 44.1388 45.5266 43.5282 45.5266 42.307ZM50.1984 44.6622L49.7658 43.5282H47.4299L46.9974 44.575H46.3918L48.2951 39.8645H49.0737L50.977 44.575H50.1984V44.6622ZM49.5928 43.0048L48.6411 40.5624L47.6895 43.0048H49.5928ZM55.7353 42.307C55.7353 43.7027 54.6971 44.6622 53.3129 44.6622H51.5826V39.9517H53.3129C54.6971 39.9517 55.7353 40.9113 55.7353 42.307ZM55.1297 42.307C55.1297 41.0857 54.2645 40.4751 53.3994 40.4751H52.2747V44.1388H53.3994C54.2645 44.1388 55.1297 43.5282 55.1297 42.307ZM59.3689 44.1388V44.6622H56.6869V39.9517H59.2824V40.4751H57.2925V42.0453H59.1958V42.5687H57.2925V44.1388H59.3689ZM66.8956 42.307C66.8956 43.7027 65.8574 44.6622 64.4732 44.6622H62.7429V39.9517H64.4732C65.8574 39.9517 66.8956 40.9113 66.8956 42.307ZM66.29 42.307C66.29 41.0857 65.4249 40.4751 64.5597 40.4751H63.435V44.1388H64.5597C65.4249 44.1388 66.29 43.5282 66.29 42.307ZM70.0101 39.9517C71.3943 39.9517 72.519 40.9113 72.519 42.3942C72.519 43.8771 71.3943 44.8367 70.0101 44.8367C68.6259 44.8367 67.5012 43.8771 67.5012 42.3942C67.5012 40.9113 68.6259 39.9517 70.0101 39.9517ZM70.0101 44.226C71.0483 44.226 71.8269 43.441 71.8269 42.307C71.8269 41.173 71.0483 40.4751 70.0101 40.4751C68.9719 40.4751 68.1933 41.2602 68.1933 42.307C68.1933 43.441 68.9719 44.226 70.0101 44.226ZM79.8727 39.9517V44.6622H79.2671V42.5687H76.4121V44.6622H75.8065V39.9517H76.4121V42.0453H79.2671V39.9517H79.8727ZM84.3715 44.6622L83.9389 43.5282H81.603L81.1704 44.575H80.4783L82.3816 39.8645H83.1602L85.0636 44.575H84.3715V44.6622ZM83.7658 43.0048L82.8142 40.5624L81.8625 43.0048H83.7658ZM89.0432 43.441C89.0432 44.1388 88.4376 44.6622 87.3994 44.6622H85.6692V39.9517H87.2264C88.2646 39.9517 88.8702 40.4751 88.8702 41.173C88.8702 41.6091 88.6106 42.0453 88.1781 42.2197C88.6972 42.3942 89.0432 42.8303 89.0432 43.441ZM86.3613 40.5624V42.0453H87.3129C87.9185 42.0453 88.3511 41.6964 88.3511 41.2602C88.3511 40.7368 87.9185 40.5624 87.3129 40.5624H86.3613ZM88.4376 43.3537C88.4376 42.6559 87.832 42.5687 87.3129 42.5687H86.3613V44.1388H87.4859C88.0915 44.1388 88.4376 43.7899 88.4376 43.3537ZM90.687 44.6622H90.0814V39.9517H90.687V44.6622ZM95.0127 40.5624H93.5419V44.6622H92.8498V40.5624H91.3791V39.9517H95.0127V40.5624ZM98.4732 44.6622L98.0407 43.5282H95.7048L95.2722 44.575H94.5801L96.4834 39.8645H97.262L99.1654 44.575H98.4732V44.6622ZM97.8676 43.0048L96.916 40.5624L95.9643 43.0048H97.8676ZM102.453 40.5624H100.982V44.6622H100.29V40.5624H98.8193V39.9517H102.453V40.5624ZM88.1781 37.422L87.7455 36.288H85.4096L84.977 37.3348H84.2849L86.1882 32.6244H86.9669L88.8702 37.3348H88.1781V37.422ZM87.5725 35.7647L86.6208 33.3222L85.6692 35.7647H87.5725Z" fill="white"/>
</svg>
