<svg xmlns="http://www.w3.org/2000/svg" viewBox="0 0 49.8 49.89"><defs><style>.cls-1{fill:#1465af;}.cls-2{fill:#009699;}.cls-3{fill:#f6c300;}</style></defs><g id="Layer_2" data-name="Layer 2"><g id="Camada_1" data-name="Camada 1"><path class="cls-1" d="M0,.82V48.7a1.17,1.17,0,0,0,1.16,1.19H11.44A1.17,1.17,0,0,0,12.6,48.7V25.33a2.61,2.61,0,0,1,1.31-2.28l16.76-9.49a1.68,1.68,0,0,0,.84-1.45V.82A.82.82,0,0,0,30.7,0H.8A.81.81,0,0,0,0,.82Z"/><path class="cls-2" d="M31.47,16.37v32.4a1.11,1.11,0,0,0,1.1,1.12H48.88a.9.9,0,0,0,.89-.91V25.14a1.19,1.19,0,0,0-.59-1L33.42,15.19A1.31,1.31,0,0,0,31.47,16.37Z"/><circle class="cls-3" cx="43.24" cy="6.6" r="6.56"/></g></g></svg>