<svg width="44" height="45" viewBox="0 0 44 45" fill="none" xmlns="http://www.w3.org/2000/svg">
<rect x="0.86245" y="0.658522" width="42.9928" height="43.4039" rx="0.99225" fill="white"/>
<path d="M0.862473 1.35527V43.0516C0.862473 43.6622 1.29504 44.0984 1.90064 44.0984H10.8116C11.3307 44.0984 11.8498 43.6622 11.8498 43.0516V22.7268C11.8498 21.9417 12.2823 21.1567 12.9744 20.7205L27.4223 12.4336C27.8549 12.1719 28.1144 11.7357 28.1144 11.1251V1.35527C28.1144 0.919121 27.7684 0.657429 27.4223 0.657429H1.6411C1.12201 0.657429 0.862473 1.00635 0.862473 1.35527Z" fill="#1465AF"/>
<path d="M28.0278 14.8776V43.0909C28.0278 43.615 28.4604 44.0517 28.9795 44.0517H43.0813C43.5138 44.0517 43.8599 43.7023 43.8599 43.2656V22.5642C43.8599 22.2148 43.6869 21.8654 43.3408 21.6907L29.7581 13.9167C28.893 13.48 28.0278 14.0041 28.0278 14.8776Z" fill="#009699"/>
<path d="M38.15 12.0847C39.6414 12.0847 41.0718 11.4873 42.1264 10.424C43.181 9.36063 43.7734 7.91845 43.7734 6.41467C43.7734 4.91089 43.181 3.4687 42.1264 2.40537C41.0718 1.34204 39.6414 0.744669 38.15 0.744669C36.6586 0.744669 35.2282 1.34204 34.1737 2.40537C33.1191 3.4687 32.5266 4.91089 32.5266 6.41467C32.5266 7.91845 33.1191 9.36063 34.1737 10.424C35.2282 11.4873 36.6586 12.0847 38.15 12.0847Z" fill="#F6C300"/>
</svg>
