<svg width="186" height="46" viewBox="0 0 186 46" fill="none" xmlns="http://www.w3.org/2000/svg">
<g clip-path="url(#clip0_48_718)">
<rect x="0.86245" y="1.65852" width="42.9928" height="43.4039" rx="0.99225" fill="white"/>
<path d="M0.862473 2.35527V44.0516C0.862473 44.6622 1.29504 45.0984 1.90064 45.0984H10.8116C11.3307 45.0984 11.8498 44.6622 11.8498 44.0516V23.7268C11.8498 22.9417 12.2823 22.1567 12.9744 21.7205L27.4223 13.4336C27.8549 13.1719 28.1144 12.7357 28.1144 12.1251V2.35527C28.1144 1.91912 27.7684 1.65743 27.4223 1.65743H1.6411C1.12201 1.65743 0.862473 2.00635 0.862473 2.35527Z" fill="#1465AF"/>
<path d="M28.0278 15.8776V44.0909C28.0278 44.615 28.4604 45.0517 28.9795 45.0517H43.0813C43.5138 45.0517 43.8599 44.7023 43.8599 44.2656V23.5642C43.8599 23.2148 43.6869 22.8654 43.3408 22.6907L29.7581 14.9167C28.893 14.48 28.0278 15.0041 28.0278 15.8776Z" fill="#009699"/>
<path d="M38.15 13.0847C39.6414 13.0847 41.0718 12.4873 42.1264 11.424C43.181 10.3606 43.7734 8.91845 43.7734 7.41467C43.7734 5.91089 43.181 4.4687 42.1264 3.40537C41.0718 2.34204 39.6414 1.74467 38.15 1.74467C36.6586 1.74467 35.2282 2.34204 34.1737 3.40537C33.1191 4.4687 32.5266 5.91089 32.5266 7.41467C32.5266 8.91845 33.1191 10.3606 34.1737 11.424C35.2282 12.4873 36.6586 13.0847 38.15 13.0847Z" fill="#F6C300"/>
<path d="M97.0661 20.4121C97.0661 24.5991 93.4325 27.3905 87.8091 27.3905H77.7734C77.6004 27.3905 77.4274 27.2161 77.4274 27.0416V1.74469C77.4274 1.57023 77.6004 1.39576 77.7734 1.39576H87.3765C93.0864 1.39576 96.4605 4.6233 96.4605 8.54869C96.4605 11.0784 94.9897 12.9102 92.9999 13.957C92.9134 13.957 92.9134 14.1315 92.9999 14.1315C95.3358 15.3527 97.0661 17.4462 97.0661 20.4121ZM82.3587 5.7573V12.2124C82.3587 12.2996 82.4452 12.3868 82.5317 12.3868H86.9439C89.5393 12.3868 91.3561 10.8167 91.3561 8.89761C91.3561 6.8913 89.6259 5.49561 87.0304 5.49561H82.4452C82.4452 5.58284 82.3587 5.67007 82.3587 5.7573ZM92.0483 19.8887C92.0483 17.5335 89.7989 16.3122 87.1169 16.3122H82.5317C82.4452 16.3122 82.3587 16.3995 82.3587 16.4867V23.1162C82.3587 23.2035 82.4452 23.2907 82.5317 23.2907H87.3765C90.491 23.3779 92.0483 21.8078 92.0483 19.8887ZM124.664 22.8545L127.086 25.4715C127.259 25.7332 127.259 26.0821 127 26.2565L124.751 28.1756C124.578 28.3501 124.231 28.3501 124.058 28.0884L121.636 25.4715C119.473 26.8672 116.791 27.565 113.85 27.565C105.891 27.565 99.921 21.895 99.921 14.0442C99.921 6.36792 105.804 0.697918 113.85 0.697918C121.896 0.697918 127.779 6.36792 127.779 14.0442C127.865 17.5335 126.654 20.4993 124.664 22.8545ZM118.435 21.8078L115.321 18.4058C115.148 18.1441 115.148 17.7952 115.407 17.6207L117.656 15.7016C117.916 15.5272 118.176 15.5272 118.349 15.7888L121.29 19.0164C122.069 17.7079 122.501 16.1378 122.588 14.3931C122.761 9.50823 118.781 5.23392 113.936 5.23392C108.832 5.23392 105.285 8.89761 105.285 14.0442C105.285 19.2781 108.832 23.029 113.936 23.029C115.58 23.029 117.137 22.5928 118.435 21.8078ZM149.84 10.8167C149.84 16.3995 144.995 20.2376 138.766 20.2376H135.824V27.2161C135.824 27.3905 135.651 27.565 135.478 27.565H131.066C130.893 27.565 130.72 27.3905 130.72 27.2161V1.74469C130.72 1.57023 130.893 1.39576 131.066 1.39576H138.766C144.995 1.39576 149.84 5.14669 149.84 10.8167ZM144.562 10.8167C144.562 7.76361 142.14 5.58284 138.852 5.58284H136.17C135.997 5.58284 135.824 5.7573 135.824 5.93176V15.6144C135.824 15.7888 135.997 15.9633 136.17 15.9633H138.852C142.14 16.0505 144.562 13.6953 144.562 10.8167ZM184.272 1.91915V27.0416C184.272 27.2161 184.099 27.3905 183.926 27.3905H179.601C179.427 27.3905 179.254 27.2161 179.254 27.0416V17.2718C179.254 17.0973 179.081 16.9228 178.908 16.9228H166.71C166.537 16.9228 166.364 17.0973 166.364 17.2718V27.0416C166.364 27.2161 166.191 27.3905 166.018 27.3905H161.692C161.519 27.3905 161.346 27.2161 161.346 27.0416V1.91915C161.346 1.74469 161.519 1.57023 161.692 1.57023H166.018C166.191 1.57023 166.364 1.74469 166.364 1.91915V11.9507C166.364 12.1251 166.537 12.2996 166.71 12.2996H178.908C179.081 12.2996 179.254 12.1251 179.254 11.9507V1.91915C179.254 1.74469 179.427 1.57023 179.601 1.57023H183.926C184.099 1.57023 184.272 1.74469 184.272 1.91915ZM74.4859 10.8167C74.4859 16.3995 69.6411 20.2376 63.4121 20.2376H60.4706V27.2161C60.4706 27.3905 60.2976 27.565 60.1246 27.565H55.7123C55.5393 27.565 55.3663 27.3905 55.3663 27.2161V1.74469C55.3663 1.57023 55.5393 1.39576 55.7123 1.39576H63.4121C69.6411 1.39576 74.4859 5.14669 74.4859 10.8167ZM69.2085 10.8167C69.2085 7.76361 66.7861 5.58284 63.4986 5.58284H60.8167C60.6436 5.58284 60.4706 5.7573 60.4706 5.93176V15.6144C60.4706 15.7888 60.6436 15.9633 60.8167 15.9633H63.4986C66.7861 16.0505 69.2085 13.6953 69.2085 10.8167Z" fill="white"/>
<path d="M155.377 11.2528L153.041 12.5613C152.868 12.6485 152.695 12.9102 152.695 13.1719V16.4867C152.695 16.8356 152.954 17.1845 153.387 17.1845H157.972C158.318 17.1845 158.664 16.9228 158.664 16.4867V13.1719C158.664 12.9102 158.578 12.7358 158.318 12.5613L155.982 11.2528C155.809 11.1656 155.55 11.1656 155.377 11.2528Z" fill="#F6C300"/>
<path d="M58.3077 34.369C58.3077 35.3285 57.4426 36.0263 56.3179 36.0263H55.7123V37.422H55.1067V32.7116H56.3179C57.4426 32.7116 58.3077 33.4094 58.3077 34.369ZM57.6156 34.369C57.6156 33.6711 57.01 33.235 56.3179 33.235H55.7123V35.503H56.3179C57.0965 35.503 57.6156 35.0668 57.6156 34.369ZM61.3357 37.422L59.692 35.7647V37.422H59.0864V32.7116H60.2111C61.3357 32.7116 62.1144 33.3222 62.1144 34.2817C62.1144 35.154 61.4223 35.6774 60.4706 35.7647L62.2009 37.422H61.3357ZM59.7785 33.3222V35.3285H60.2976C61.0762 35.3285 61.5953 34.9796 61.5953 34.369C61.5953 33.7584 61.0762 33.4094 60.2976 33.4094H59.7785V33.3222ZM65.2289 32.7116C66.6131 32.7116 67.7378 33.6711 67.7378 35.154C67.7378 36.637 66.6131 37.5965 65.2289 37.5965C63.8447 37.5965 62.72 36.637 62.72 35.154C62.8065 33.6711 63.9312 32.7116 65.2289 32.7116ZM65.2289 36.9859C66.267 36.9859 67.0457 36.2008 67.0457 35.0668C67.0457 33.9328 66.267 33.235 65.2289 33.235C64.1907 33.235 63.4121 34.02 63.4121 35.0668C63.4121 36.2008 64.2772 36.9859 65.2289 36.9859ZM73.0151 35.503C73.0151 36.7242 72.15 37.5093 70.8523 37.5093C69.5546 37.5093 68.4299 36.4625 68.4299 35.0668C68.4299 33.6711 69.5546 32.6244 70.8523 32.6244C71.977 32.6244 72.9286 33.4094 73.0151 34.4562H72.4095C72.323 33.6711 71.7174 33.1477 70.8523 33.1477C69.9006 33.1477 69.0355 33.9328 69.0355 34.9796C69.0355 36.1136 69.9006 36.8114 70.8523 36.8114C71.7174 36.8114 72.323 36.3753 72.4095 35.6774H70.9388V35.154H73.0151V35.503ZM76.2162 37.422L74.5724 35.7647V37.422H73.9668V32.7116H75.0915C76.2162 32.7116 76.9948 33.3222 76.9948 34.2817C76.9948 35.154 76.3027 35.6774 75.351 35.7647L77.0813 37.422H76.2162ZM74.5724 33.3222V35.3285H75.0915C75.8701 35.3285 76.3892 34.9796 76.3892 34.369C76.3892 33.7584 75.8701 33.4094 75.0915 33.4094H74.5724V33.3222ZM81.1475 37.422L80.7149 36.288H78.379L77.9464 37.3348H77.2543L79.1576 32.6244H79.9363L81.8396 37.3348H81.1475V37.422ZM80.5419 35.7647L79.5902 33.3222L78.6386 35.7647H80.5419ZM87.0304 32.7116V37.422H86.4248V33.7584L84.9541 36.0263H84.608L83.1373 33.8456V37.5093H82.5317V32.7988H83.0508L84.7811 35.4157L86.5113 32.7988H87.0304V32.7116ZM91.5292 37.422L91.0966 36.288H88.7607L88.3281 37.3348H87.636L89.5393 32.6244H90.318L92.2213 37.3348H91.5292V37.422ZM90.837 35.7647L89.8854 33.3222L88.9337 35.7647H90.837ZM98.6233 36.2008C98.6233 36.8987 98.0177 37.422 96.9795 37.422H95.2493V32.7116H96.8065C97.8447 32.7116 98.4503 33.235 98.4503 33.9328C98.4503 34.369 98.1907 34.8051 97.7582 34.9796C98.1907 35.2413 98.6233 35.5902 98.6233 36.2008ZM95.8549 33.3222V34.8051H96.8065C97.4121 34.8051 97.8447 34.4562 97.8447 34.02C97.8447 33.4967 97.4121 33.3222 96.8065 33.3222H95.8549ZM97.9312 36.1136C97.9312 35.4157 97.2391 35.3285 96.8065 35.3285H95.8549V36.8987H96.9795C97.5851 36.8987 97.9312 36.5497 97.9312 36.1136ZM101.824 37.422L100.181 35.7647V37.422H99.575V32.7116H100.7C101.824 32.7116 102.603 33.3222 102.603 34.2817C102.603 35.154 101.911 35.6774 100.959 35.7647L102.689 37.422H101.824ZM100.181 33.3222V35.3285H100.7C101.478 35.3285 101.997 34.9796 101.997 34.369C101.997 33.7584 101.478 33.4094 100.7 33.4094H100.181V33.3222ZM106.756 37.422L106.323 36.288H103.987L103.555 37.3348H102.862L104.766 32.6244H105.544L107.448 37.3348H106.756V37.422ZM106.15 35.7647L105.198 33.3222L104.247 35.7647H106.15ZM108.226 36.1136C108.399 36.7242 108.918 36.9859 109.438 36.9859C110.043 36.9859 110.476 36.637 110.476 36.288C110.476 35.154 107.88 35.7647 107.88 33.9328C107.88 33.235 108.486 32.7116 109.438 32.7116C110.389 32.7116 110.908 33.3222 111.081 34.1073H110.476C110.303 33.5839 109.957 33.3222 109.438 33.3222C108.918 33.3222 108.486 33.5839 108.486 34.02C108.486 35.2413 111.081 34.6307 111.081 36.3753C111.081 37.1604 110.303 37.6837 109.438 37.6837C108.486 37.6837 107.794 37.1603 107.621 36.288H108.226V36.1136ZM112.725 37.422H112.12V32.7116H112.725V37.422ZM116.964 36.8987V37.5093H114.023V32.7988H114.628V36.8987H116.964ZM120.338 36.8987V37.422H117.656V32.7116H120.252V33.235H118.262V34.8051H120.165V35.4157H118.262V36.8987H120.338ZM121.982 37.422H121.29V32.7116H121.896V37.422H121.982ZM125.529 37.422L123.885 35.7647V37.422H123.28V32.7116H124.405C125.529 32.7116 126.308 33.3222 126.308 34.2817C126.308 35.154 125.616 35.6774 124.664 35.7647L126.394 37.422H125.529ZM123.885 33.3222V35.3285H124.405C125.183 35.3285 125.702 34.9796 125.702 34.369C125.702 33.7584 125.183 33.4094 124.405 33.4094H123.885V33.3222ZM129.336 32.7116C130.72 32.7116 131.845 33.6711 131.845 35.154C131.845 36.637 130.72 37.5965 129.336 37.5965C127.952 37.5965 126.827 36.637 126.827 35.154C126.913 33.6711 128.038 32.7116 129.336 32.7116ZM129.336 36.9859C130.374 36.9859 131.153 36.2008 131.153 35.0668C131.153 33.9328 130.374 33.235 129.336 33.235C128.298 33.235 127.519 34.02 127.519 35.0668C127.519 36.2008 128.384 36.9859 129.336 36.9859ZM139.371 35.0668C139.371 36.4625 138.333 37.422 136.949 37.422H135.219V32.7116H136.949C138.333 32.7116 139.371 33.6711 139.371 35.0668ZM138.679 35.0668C138.679 33.8456 137.814 33.235 136.949 33.235H135.824V36.8987H136.949C137.901 36.8987 138.679 36.288 138.679 35.0668ZM150.359 36.7242L150.878 37.3348L150.445 37.6837L149.926 37.1603C149.494 37.422 149.061 37.5965 148.455 37.5965C147.071 37.5965 145.947 36.637 145.947 35.154C145.947 33.7583 147.071 32.7116 148.455 32.7116C149.84 32.7116 150.964 33.6711 150.964 35.154C150.964 35.7647 150.705 36.3753 150.359 36.7242ZM149.494 36.637L148.715 35.7647L149.148 35.4157L149.926 36.288C150.186 35.9391 150.359 35.5902 150.359 35.0668C150.359 33.9328 149.58 33.235 148.542 33.235C147.504 33.235 146.725 34.02 146.725 35.0668C146.725 36.2008 147.504 36.9859 148.542 36.9859C148.888 36.9859 149.234 36.8987 149.494 36.637ZM151.829 32.7116H152.435V35.503C152.435 36.3753 152.954 36.8987 153.733 36.8987C154.511 36.8987 155.03 36.3753 155.03 35.503V32.7116H155.636V35.4157C155.636 36.637 154.857 37.5093 153.646 37.5093C152.522 37.5093 151.656 36.7242 151.656 35.4157V32.7116H151.829ZM160.048 37.422L159.616 36.288H157.28L156.847 37.3348H156.155L158.058 32.6244H158.837L160.74 37.3348H160.048V37.422ZM159.443 35.7647L158.491 33.3222L157.539 35.7647H159.443ZM164.374 36.8987V37.5093H161.433V32.7988H162.038V36.8987H164.374ZM165.758 37.422H165.153V32.7116H165.758V37.422ZM171.209 35.0668C171.209 36.4625 170.17 37.422 168.786 37.422H167.056V32.7116H168.786C170.17 32.7116 171.209 33.6711 171.209 35.0668ZM170.517 35.0668C170.517 33.8456 169.651 33.235 168.786 33.235H167.662V36.8987H168.786C169.738 36.8987 170.517 36.288 170.517 35.0668ZM175.275 37.422L174.842 36.288H172.506L172.074 37.3348H171.468L173.371 32.6244H174.15L176.053 37.3348H175.275V37.422ZM174.583 35.7647L173.631 33.3222L172.679 35.7647H174.583ZM180.812 35.0668C180.812 36.4625 179.774 37.422 178.389 37.422H176.659V32.7116H178.389C179.774 32.7116 180.812 33.6711 180.812 35.0668ZM180.12 35.0668C180.12 33.8456 179.254 33.235 178.389 33.235H177.265V36.8987H178.389C179.254 36.8987 180.12 36.288 180.12 35.0668ZM184.359 36.8987V37.422H181.677V32.7116H184.272V33.235H182.282V34.8051H184.186V35.4157H182.282V36.8987H184.359ZM57.7887 44.1388V44.6622H55.1067V39.9517H57.7021V40.4751H55.7123V42.0453H57.6156V42.5687H55.7123V44.1388H57.7887ZM64.2772 41.6091C64.2772 42.5687 63.4121 43.2665 62.2874 43.2665H61.6818V44.6622H61.0762V39.9517H62.2874C63.4986 39.9517 64.2772 40.6496 64.2772 41.6091ZM63.6716 41.6091C63.6716 40.9113 63.066 40.4751 62.3739 40.4751H61.7683V42.7431H62.3739C63.066 42.7431 63.6716 42.307 63.6716 41.6091ZM67.3917 44.6622L65.748 43.0048V44.6622H65.1424V39.9517H66.267C67.3917 39.9517 68.1704 40.5623 68.1704 41.5219C68.1704 42.3942 67.4782 42.9176 66.5266 43.0048L68.2569 44.6622H67.3917ZM65.748 40.5624V42.5687H66.267C67.0457 42.5687 67.5648 42.2197 67.5648 41.6091C67.5648 40.9985 67.0457 40.6496 66.267 40.6496H65.748V40.5624ZM71.2849 39.9517C72.6691 39.9517 73.7938 40.9113 73.7938 42.3942C73.7938 43.8771 72.6691 44.8367 71.2849 44.8367C69.9006 44.8367 68.776 43.8771 68.776 42.3942C68.776 40.9113 69.9006 39.9517 71.2849 39.9517ZM71.2849 44.226C72.323 44.226 73.1017 43.441 73.1017 42.307C73.1017 41.173 72.323 40.4751 71.2849 40.4751C70.2467 40.4751 69.4681 41.2602 69.4681 42.307C69.4681 43.441 70.2467 44.226 71.2849 44.226ZM78.8981 42.307C78.8981 43.7027 77.8599 44.6622 76.4757 44.6622H74.7454V39.9517H76.4757C77.8599 39.9517 78.8981 40.9113 78.8981 42.307ZM78.206 42.307C78.206 41.0857 77.3408 40.4751 76.4757 40.4751H75.351V44.1388H76.4757C77.3408 44.1388 78.206 43.5282 78.206 42.307ZM79.7632 39.9517H80.3688V42.7431C80.3688 43.6154 80.8879 44.1388 81.6666 44.1388C82.4452 44.1388 82.9643 43.6154 82.9643 42.7431V39.9517H83.5699V42.6559C83.5699 43.8771 82.7912 44.7494 81.58 44.7494C80.4554 44.7494 79.5902 43.9644 79.5902 42.6559V39.9517H79.7632ZM87.9821 40.5624H86.5113V44.6622H85.8192V40.5624H84.3485V39.9517H87.9821V40.5624ZM89.2798 44.6622H88.6742V39.9517H89.2798V44.6622ZM94.3841 39.9517L92.5673 44.6622H91.8752L89.9719 39.9517H90.664L92.2213 44.0516L93.692 39.9517H94.3841ZM95.7683 44.6622H95.1627V39.9517H95.7683V44.6622ZM101.132 42.307C101.132 43.7027 100.094 44.6622 98.7098 44.6622H96.9795V39.9517H98.7098C100.094 39.9517 101.132 40.9113 101.132 42.307ZM100.527 42.307C100.527 41.0857 99.6615 40.4751 98.7963 40.4751H97.6717V44.1388H98.7963C99.6615 44.1388 100.527 43.5282 100.527 42.307ZM105.198 44.6622L104.766 43.5282H102.43L101.997 44.575H101.392L103.295 39.8645H104.074L105.977 44.575H105.198V44.6622ZM104.593 43.0048L103.641 40.5624L102.689 43.0048H104.593ZM110.735 42.307C110.735 43.7027 109.697 44.6622 108.313 44.6622H106.583V39.9517H108.313C109.697 39.9517 110.735 40.9113 110.735 42.307ZM110.13 42.307C110.13 41.0857 109.265 40.4751 108.399 40.4751H107.275V44.1388H108.399C109.265 44.1388 110.13 43.5282 110.13 42.307ZM114.369 44.1388V44.6622H111.687V39.9517H114.282V40.4751H112.293V42.0453H114.196V42.5687H112.293V44.1388H114.369ZM121.896 42.307C121.896 43.7027 120.857 44.6622 119.473 44.6622H117.743V39.9517H119.473C120.857 39.9517 121.896 40.9113 121.896 42.307ZM121.29 42.307C121.29 41.0857 120.425 40.4751 119.56 40.4751H118.435V44.1388H119.56C120.425 44.1388 121.29 43.5282 121.29 42.307ZM125.01 39.9517C126.394 39.9517 127.519 40.9113 127.519 42.3942C127.519 43.8771 126.394 44.8367 125.01 44.8367C123.626 44.8367 122.501 43.8771 122.501 42.3942C122.501 40.9113 123.626 39.9517 125.01 39.9517ZM125.01 44.226C126.048 44.226 126.827 43.441 126.827 42.307C126.827 41.173 126.048 40.4751 125.01 40.4751C123.972 40.4751 123.193 41.2602 123.193 42.307C123.193 43.441 123.972 44.226 125.01 44.226ZM134.873 39.9517V44.6622H134.267V42.5687H131.412V44.6622H130.807V39.9517H131.412V42.0453H134.267V39.9517H134.873ZM139.371 44.6622L138.939 43.5282H136.603L136.17 44.575H135.478L137.382 39.8645H138.16L140.064 44.575H139.371V44.6622ZM138.766 43.0048L137.814 40.5624L136.863 43.0048H138.766ZM144.043 43.441C144.043 44.1388 143.438 44.6622 142.399 44.6622H140.669V39.9517H142.226C143.265 39.9517 143.87 40.4751 143.87 41.173C143.87 41.6091 143.611 42.0453 143.178 42.2197C143.697 42.3942 144.043 42.8303 144.043 43.441ZM141.361 40.5624V42.0453H142.313C142.919 42.0453 143.351 41.6964 143.351 41.2602C143.351 40.7368 142.919 40.5624 142.313 40.5624H141.361ZM143.438 43.3537C143.438 42.6559 142.832 42.5687 142.313 42.5687H141.361V44.1388H142.486C143.092 44.1388 143.438 43.7899 143.438 43.3537ZM145.687 44.6622H145.081V39.9517H145.687V44.6622ZM150.013 40.5624H148.542V44.6622H147.85V40.5624H146.379V39.9517H150.013V40.5624ZM153.473 44.6622L153.041 43.5282H150.705L150.272 44.575H149.58L151.483 39.8645H152.262L154.165 44.575H153.473V44.6622ZM152.868 43.0048L151.916 40.5624L150.964 43.0048H152.868ZM157.453 40.5624H155.982V44.6622H155.29V40.5624H153.819V39.9517H157.453V40.5624ZM143.178 37.422L142.745 36.288H140.41L139.977 37.3348H139.285L141.188 32.6244H141.967L143.87 37.3348H143.178V37.422ZM142.572 35.7647L141.621 33.3222L140.669 35.7647H142.572Z" fill="white"/>
</g>
<defs>
<clipPath id="clip0_48_718">
<rect width="184.275" height="45.36" fill="white" transform="translate(0.862488)"/>
</clipPath>
</defs>
</svg>
