<svg xmlns="http://www.w3.org/2000/svg" viewBox="0 0 212.16 50.91"><defs><style>.cls-1{fill:#1465af;}.cls-2{fill:#009699;}.cls-3{fill:#f6c300;}.cls-4{fill:#142d3f;}.cls-5{fill:#1d1d1b;}</style></defs><g id="Layer_2" data-name="Layer 2"><g id="Camada_1" data-name="Camada 1"><path class="cls-1" d="M0,1.93v47.8a1.17,1.17,0,0,0,1.16,1.18H11.42a1.17,1.17,0,0,0,1.16-1.18V26.39a2.61,2.61,0,0,1,1.31-2.27l16.72-9.47a1.66,1.66,0,0,0,.84-1.45V1.93a.81.81,0,0,0-.8-.82H.8A.81.81,0,0,0,0,1.93Z"/><path class="cls-2" d="M31.41,17.45V49.79a1.11,1.11,0,0,0,1.1,1.12H48.79a.89.89,0,0,0,.89-.9V26.21a1.19,1.19,0,0,0-.59-1L33.36,16.27A1.32,1.32,0,0,0,31.41,17.45Z"/><circle class="cls-3" cx="43.16" cy="7.69" r="6.55"/><path class="cls-3" d="M178.59,12.1l-2.66,1.49a.75.75,0,0,0-.4.67v3.8a.76.76,0,0,0,.76.76h5.33a.76.76,0,0,0,.76-.76v-3.8a.75.75,0,0,0-.4-.67l-2.66-1.49A.73.73,0,0,0,178.59,12.1Z"/><path class="cls-4" d="M111.27,22.67c0,4.81-4.2,8-10.73,8H88.92a.39.39,0,0,1-.38-.39V1.3a.38.38,0,0,1,.38-.39H100c6.61,0,10.48,3.67,10.48,8.25a6.87,6.87,0,0,1-4,6.22.11.11,0,0,0,0,.2A7.63,7.63,0,0,1,111.27,22.67Zm-17-16.82v7.39a.25.25,0,0,0,.25.24h5.14c3,0,5.14-1.79,5.14-4s-2-3.87-5-3.87H94.5A.25.25,0,0,0,94.25,5.85ZM105.47,22c0-2.73-2.61-4.08-5.67-4.08H94.5a.25.25,0,0,0-.25.25v7.63a.25.25,0,0,0,.25.24h5.63C103.6,26,105.47,24.26,105.47,22Z"/><path class="cls-4" d="M143.17,25.4l2.78,3a.61.61,0,0,1-.06.88l-2.56,2.17a.61.61,0,0,1-.84,0l-2.81-3a16.94,16.94,0,0,1-9,2.42c-9.25,0-16.07-6.53-16.07-15.53,0-8.8,6.82-15.29,16.07-15.29s16.11,6.49,16.11,15.29A15.17,15.17,0,0,1,143.17,25.4Zm-7.23-1.15-3.63-3.93a.6.6,0,0,1,.06-.88L135,17.27a.6.6,0,0,1,.84.06L139.19,21a10.76,10.76,0,0,0,1.51-5.27,10.2,10.2,0,0,0-10-10.55c-5.88,0-10,4.15-10,10.07s4.11,10.31,10,10.31A10.57,10.57,0,0,0,135.94,24.25Z"/><path class="cls-4" d="M172.22,11.65c0,6.38-5.56,10.79-12.76,10.79H156v8a.4.4,0,0,1-.4.4h-5.13a.4.4,0,0,1-.4-.4V1.18a.4.4,0,0,1,.4-.4h9C166.62.78,172.22,5.11,172.22,11.65Zm-6.05,0c0-3.46-2.84-6-6.59-6h-3.14a.4.4,0,0,0-.4.4V17.18a.4.4,0,0,0,.4.4h3.14C163.37,17.58,166.17,14.94,166.17,11.65Z"/><path class="cls-4" d="M212.08,1.43V30.19a.45.45,0,0,1-.44.45h-5a.45.45,0,0,1-.45-.45V19a.37.37,0,0,0-.36-.37H191.81a.38.38,0,0,0-.37.37V30.19a.45.45,0,0,1-.44.45h-5a.45.45,0,0,1-.45-.45V1.43A.45.45,0,0,1,186,1h5a.45.45,0,0,1,.44.45V13a.37.37,0,0,0,.37.36h14.06a.36.36,0,0,0,.36-.36V1.43a.45.45,0,0,1,.45-.45h5A.45.45,0,0,1,212.08,1.43Z"/><path class="cls-4" d="M85.13,11.65c0,6.38-5.55,10.79-12.76,10.79H69v8a.4.4,0,0,1-.4.4H63.43a.4.4,0,0,1-.4-.4V1.18a.4.4,0,0,1,.4-.4h8.94C79.54.78,85.13,5.11,85.13,11.65Zm-6,0c0-3.46-2.84-6-6.58-6H69.36A.4.4,0,0,0,69,6V17.18a.4.4,0,0,0,.4.4H72.5C76.28,17.58,79.08,14.94,79.08,11.65Z"/><path class="cls-5" d="M66.41,38.65a2.07,2.07,0,0,1-2.27,1.93h-.67v1.59h-.73V36.74h1.4A2,2,0,0,1,66.41,38.65Zm-.75,0a1.34,1.34,0,0,0-1.5-1.27h-.69v2.56h.69A1.38,1.38,0,0,0,65.66,38.65Z"/><path class="cls-5" d="M70,42.17,68.1,40.25v1.92h-.73V36.74h1.31c1.27,0,2.21.72,2.21,1.79s-.79,1.61-1.92,1.7l2,1.94ZM68.1,37.38v2.25h.58c.9,0,1.47-.43,1.47-1.1s-.57-1.15-1.47-1.15Z"/><path class="cls-5" d="M74.47,36.67a2.79,2.79,0,1,1-2.86,2.77A2.76,2.76,0,0,1,74.47,36.67Zm0,4.93a2.15,2.15,0,1,0-2.12-2.16A2.08,2.08,0,0,0,74.47,41.6Z"/><path class="cls-5" d="M83.4,39.89a2.31,2.31,0,0,1-2.49,2.35,2.79,2.79,0,1,1,0-5.57,2.42,2.42,0,0,1,2.48,2.13H82.7a1.7,1.7,0,0,0-1.79-1.48,2.14,2.14,0,0,0,0,4.28,1.66,1.66,0,0,0,1.82-1.32H81v-.63H83.4Z"/><path class="cls-5" d="M87.13,42.17l-1.88-1.92v1.92h-.73V36.74h1.31c1.27,0,2.21.72,2.21,1.79s-.79,1.61-1.92,1.7l2,1.94Zm-1.88-4.79v2.25h.58c.9,0,1.48-.43,1.48-1.1s-.58-1.15-1.48-1.15Z"/><path class="cls-5" d="M92.85,42.17l-.47-1.26v0h-2.7l-.48,1.24h-.75l2.16-5.43h.86l2.15,5.43Zm-.73-1.94L91,37.4,90,40.23Z"/><path class="cls-5" d="M99.6,36.74v5.43h-.67V37.93L97.22,40.5h-.4L95.1,38v4.22h-.68V36.74h.64l2,3,2-3Z"/><path class="cls-5" d="M104.79,42.17l-.48-1.26v0h-2.69l-.48,1.24h-.75l2.16-5.43h.86l2.15,5.43Zm-.74-1.94L103,37.4l-1.09,2.83Z"/><path class="cls-5" d="M113,40.72c0,.83-.68,1.45-1.86,1.45h-2V36.74H111c1.17,0,1.86.57,1.86,1.44a1.27,1.27,0,0,1-.84,1.19A1.37,1.37,0,0,1,113,40.72Zm-3.16-3.35v1.71H111c.67,0,1.17-.37,1.17-.87s-.45-.84-1.17-.84Zm2.44,3.28c0-.76-.75-.94-1.3-.94h-1.14v1.83h1.26C111.88,41.54,112.27,41.15,112.27,40.65Z"/><path class="cls-5" d="M116.73,42.17l-1.89-1.92v1.92h-.72V36.74h1.31c1.27,0,2.21.72,2.21,1.79s-.8,1.61-1.92,1.7l2,1.94Zm-1.89-4.79v2.25h.59c.89,0,1.47-.43,1.47-1.1s-.58-1.15-1.48-1.15Z"/><path class="cls-5" d="M122.45,42.17,122,40.91v0h-2.69l-.48,1.24h-.75l2.16-5.43h.86l2.15,5.43Zm-.74-1.94-1.07-2.83-1.1,2.83Z"/><path class="cls-5" d="M124.18,40.6a1.38,1.38,0,0,0,1.41,1c.67,0,1.15-.35,1.15-.83,0-1.33-3-.64-3-2.66,0-.85.73-1.43,1.78-1.43a1.86,1.86,0,0,1,1.91,1.57h-.72a1.19,1.19,0,0,0-1.19-.92c-.62,0-1.06.31-1.06.78,0,1.37,3,.73,3,2.65,0,.9-.87,1.49-1.89,1.49a2.09,2.09,0,0,1-2.15-1.64Z"/><path class="cls-5" d="M129.31,42.17h-.72V36.74h.72Z"/><path class="cls-5" d="M134.22,41.48v.69h-3.43V36.74h.73v4.74Z"/><path class="cls-5" d="M138.14,41.53v.64h-3.07V36.74h3v.64h-2.31v1.77H138v.64h-2.16v1.74Z"/><path class="cls-5" d="M140,42.17h-.73V36.74H140Z"/><path class="cls-5" d="M144.09,42.17l-1.89-1.92v1.92h-.72V36.74h1.31c1.27,0,2.21.72,2.21,1.79s-.8,1.61-1.92,1.7l2,1.94Zm-1.89-4.79v2.25h.59c.89,0,1.47-.43,1.47-1.1s-.58-1.15-1.48-1.15Z"/><path class="cls-5" d="M148.57,36.67a2.79,2.79,0,1,1-2.85,2.77A2.76,2.76,0,0,1,148.57,36.67Zm0,4.93a2.15,2.15,0,1,0-2.11-2.16A2.08,2.08,0,0,0,148.57,41.6Z"/><path class="cls-5" d="M160.1,39.45a2.66,2.66,0,0,1-2.79,2.72h-2V36.74h2A2.66,2.66,0,0,1,160.1,39.45Zm-.74,0a2,2,0,0,0-2.05-2.08H156v4.16h1.29A2,2,0,0,0,159.36,39.45Z"/><path class="cls-5" d="M172.79,41.36l.57.65-.47.39-.58-.64a3,3,0,0,1-1.66.48,2.75,2.75,0,1,1,2.14-.88Zm-.93-.11-.93-1,.48-.42.91,1a2.19,2.19,0,0,0,.46-1.39,2.12,2.12,0,1,0-2.13,2.16A2.15,2.15,0,0,0,171.86,41.25Z"/><path class="cls-5" d="M174.54,36.74h.74v3.19a1.53,1.53,0,1,0,3.06,0V36.74h.74v3.15a2.27,2.27,0,1,1-4.54,0Z"/><path class="cls-5" d="M184.05,42.17l-.48-1.26v0h-2.69l-.48,1.24h-.75l2.15-5.43h.87l2.15,5.43Zm-.74-1.94-1.07-2.83-1.1,2.83Z"/><path class="cls-5" d="M189.05,41.48v.69h-3.43V36.74h.73v4.74Z"/><path class="cls-5" d="M190.62,42.17h-.72V36.74h.72Z"/><path class="cls-5" d="M196.91,39.45a2.66,2.66,0,0,1-2.79,2.72h-2V36.74h2A2.67,2.67,0,0,1,196.91,39.45Zm-.75,0a2,2,0,0,0-2-2.08h-1.29v4.16h1.29A2,2,0,0,0,196.16,39.45Z"/><path class="cls-5" d="M201.61,42.17l-.47-1.26v0h-2.7L198,42.17h-.75l2.15-5.43h.86l2.16,5.43Zm-.73-1.94L199.8,37.4l-1.09,2.83Z"/><path class="cls-5" d="M208,39.45a2.66,2.66,0,0,1-2.79,2.72h-2V36.74h2A2.66,2.66,0,0,1,208,39.45Zm-.74,0a2,2,0,0,0-2.05-2.08h-1.29v4.16h1.29A2,2,0,0,0,207.25,39.45Z"/><path class="cls-5" d="M212.16,41.53v.64H209.1V36.74h3v.64h-2.31v1.77H212v.64h-2.16v1.74Z"/><path class="cls-5" d="M65.81,49.83v.64H62.74V45h3v.63H63.46v1.78h2.17v.64H63.46v1.74Z"/><path class="cls-5" d="M73.37,47a2.07,2.07,0,0,1-2.27,1.93h-.67v1.59H69.7V45h1.4A2,2,0,0,1,73.37,47Zm-.75,0a1.34,1.34,0,0,0-1.5-1.27h-.69v2.56h.69A1.38,1.38,0,0,0,72.62,47Z"/><path class="cls-5" d="M76.94,50.47l-1.88-1.92v1.92h-.73V45h1.31c1.27,0,2.21.72,2.21,1.79s-.79,1.61-1.92,1.7l2,1.94Zm-1.88-4.79v2.25h.58c.9,0,1.47-.43,1.47-1.1s-.57-1.15-1.47-1.15Z"/><path class="cls-5" d="M81.43,45a2.79,2.79,0,1,1-2.86,2.77A2.76,2.76,0,0,1,81.43,45Zm0,4.93a2.15,2.15,0,1,0-2.12-2.16A2.08,2.08,0,0,0,81.43,49.9Z"/><path class="cls-5" d="M90.2,47.75a2.66,2.66,0,0,1-2.8,2.72h-2V45h2A2.67,2.67,0,0,1,90.2,47.75Zm-.75,0a2,2,0,0,0-2-2.08H86.12v4.16H87.4A2,2,0,0,0,89.45,47.75Z"/><path class="cls-5" d="M91.22,45H92v3.19a1.53,1.53,0,1,0,3.06,0V45h.75v3.15a2.28,2.28,0,1,1-4.55,0Z"/><path class="cls-5" d="M100.69,45.73H99v4.74h-.76V45.73H96.53V45h4.16Z"/><path class="cls-5" d="M102.27,50.47h-.73V45h.73Z"/><path class="cls-5" d="M108.15,45,106,50.47h-.79L103.05,45h.81l1.79,4.69L107.38,45Z"/><path class="cls-5" d="M109.69,50.47H109V45h.73Z"/><path class="cls-5" d="M116,47.75a2.66,2.66,0,0,1-2.79,2.72h-2V45h2A2.66,2.66,0,0,1,116,47.75Zm-.74,0a2,2,0,0,0-2-2.08H111.9v4.16h1.28A2,2,0,0,0,115.23,47.75Z"/><path class="cls-5" d="M120.68,50.47l-.47-1.26v0h-2.7L117,50.47h-.75L118.44,45h.86l2.15,5.43ZM120,48.53l-1.08-2.83-1.09,2.83Z"/><path class="cls-5" d="M127.06,47.75a2.66,2.66,0,0,1-2.79,2.72h-2V45h2A2.66,2.66,0,0,1,127.06,47.75Zm-.74,0a2,2,0,0,0-2-2.08H123v4.16h1.29A2,2,0,0,0,126.32,47.75Z"/><path class="cls-5" d="M131.23,49.83v.64h-3.07V45h3v.63h-2.31v1.78h2.17v.64h-2.17v1.74Z"/><path class="cls-5" d="M139.93,47.75a2.66,2.66,0,0,1-2.79,2.72h-2V45h2A2.66,2.66,0,0,1,139.93,47.75Zm-.74,0a2,2,0,0,0-2.05-2.08h-1.29v4.16h1.29A2,2,0,0,0,139.19,47.75Z"/><path class="cls-5" d="M143.52,45a2.79,2.79,0,1,1-2.86,2.77A2.76,2.76,0,0,1,143.52,45Zm0,4.93a2.15,2.15,0,1,0-2.12-2.16A2.08,2.08,0,0,0,143.52,49.9Z"/><path class="cls-5" d="M155,45v5.43h-.73V48.11H151v2.36h-.73V45H151v2.38h3.25V45Z"/><path class="cls-5" d="M160.14,50.47l-.47-1.26v0H157l-.48,1.24h-.75L157.9,45h.86l2.15,5.43Zm-.73-1.94-1.08-2.83-1.09,2.83Z"/><path class="cls-5" d="M165.58,49c0,.83-.67,1.45-1.85,1.45h-2V45h1.85c1.18,0,1.87.57,1.87,1.44a1.29,1.29,0,0,1-.84,1.19A1.36,1.36,0,0,1,165.58,49Zm-3.15-3.35v1.71h1.12c.67,0,1.16-.37,1.16-.87s-.45-.84-1.17-.84ZM164.86,49c0-.76-.75-.94-1.3-.94h-1.13v1.83h1.25C164.47,49.84,164.86,49.45,164.86,49Z"/><path class="cls-5" d="M167.44,50.47h-.73V45h.73Z"/><path class="cls-5" d="M172.46,45.73h-1.72v4.74H170V45.73h-1.69V45h4.17Z"/><path class="cls-5" d="M176.47,50.47,176,49.21v0h-2.7l-.47,1.24h-.75L174.23,45h.86l2.16,5.43Zm-.73-1.94-1.08-2.83-1.09,2.83Z"/><path class="cls-5" d="M181.05,45.73h-1.72v4.74h-.76V45.73h-1.69V45h4.17Z"/><path class="cls-5" d="M164.55,42.17l-.47-1.26v0h-2.7l-.47,1.24h-.76l2.16-5.43h.86l2.15,5.43Zm-.73-1.94-1.08-2.83-1.09,2.83Z"/></g></g></svg>